<svg width="32" height="32" viewBox="0 0 32 32" fill="none" xmlns="http://www.w3.org/2000/svg">
<path d="M7.66667 7.66667H7.68334M7.66667 1H16C16.8533 1 17.7067 1.325 18.3567 1.97667L30.0233 13.6433C30.6482 14.2684 30.9993 15.1161 30.9993 16C30.9993 16.8839 30.6482 17.7316 30.0233 18.3567L18.3567 30.0233C17.7316 30.6482 16.8839 30.9993 16 30.9993C15.1161 30.9993 14.2684 30.6482 13.6433 30.0233L1.97667 18.3567C1.66667 18.0475 1.42081 17.6802 1.25321 17.2758C1.0856 16.8713 0.99955 16.4378 1 16V7.66667C1 5.89856 1.70238 4.20286 2.95262 2.95262C4.20287 1.70238 5.89856 1 7.66667 1Z" stroke="black" stroke-width="2" stroke-linecap="round" stroke-linejoin="round"/>
</svg>
