<svg width="148" height="180" viewBox="0 0 148 180" fill="none" xmlns="http://www.w3.org/2000/svg">
<path d="M22.2 37C22.2 33.0747 23.7592 29.3103 26.5348 26.5348C29.3103 23.7592 33.0747 22.2 37 22.2H88.7999C92.7252 22.2 96.4896 23.7592 99.2651 26.5348C102.041 29.3103 103.6 33.0747 103.6 37V88.7999H125.8V103.6C125.8 109.488 123.461 115.134 119.298 119.298C115.134 123.461 109.488 125.8 103.6 125.8H44.4C38.5121 125.8 32.8655 123.461 28.7022 119.298C24.5389 115.134 22.2 109.488 22.2 103.6V37ZM103.6 118.4C107.525 118.4 111.29 116.841 114.065 114.065C116.841 111.29 118.4 107.525 118.4 103.6V96.2H103.6V118.4ZM48.1 44.4C47.1187 44.4 46.1775 44.7898 45.4837 45.4837C44.7898 46.1775 44.4 47.1187 44.4 48.1C44.4 49.0813 44.7898 50.0224 45.4837 50.7162C46.1775 51.4101 47.1187 51.8 48.1 51.8H77.7C78.6813 51.8 79.6224 51.4101 80.3162 50.7162C81.0101 50.0224 81.4 49.0813 81.4 48.1C81.4 47.1187 81.0101 46.1775 80.3162 45.4837C79.6224 44.7898 78.6813 44.4 77.7 44.4H48.1ZM48.1 66.6C47.1187 66.6 46.1775 66.9898 45.4837 67.6837C44.7898 68.3775 44.4 69.3186 44.4 70.3C44.4 71.2813 44.7898 72.2224 45.4837 72.9162C46.1775 73.6101 47.1187 74 48.1 74H77.7C78.6813 74 79.6224 73.6101 80.3162 72.9162C81.0101 72.2224 81.4 71.2813 81.4 70.3C81.4 69.3186 81.0101 68.3775 80.3162 67.6837C79.6224 66.9898 78.6813 66.6 77.7 66.6H48.1ZM48.1 88.7999C47.1187 88.7999 46.1775 89.1898 45.4837 89.8837C44.7898 90.5775 44.4 91.5187 44.4 92.5C44.4 93.4813 44.7898 94.4224 45.4837 95.1162C46.1775 95.8101 47.1187 96.2 48.1 96.2H62.9C63.8813 96.2 64.8224 95.8101 65.5163 95.1162C66.2101 94.4224 66.6 93.4813 66.6 92.5C66.6 91.5187 66.2101 90.5775 65.5163 89.8837C64.8224 89.1898 63.8813 88.7999 62.9 88.7999H48.1Z" fill="#00BCB4"/>
<circle cx="106" cy="120" r="15" fill="white"/>
<path d="M98.5 116.667C98.5 117.125 98.875 117.5 99.3333 117.5C99.7917 117.5 100.167 117.125 100.167 116.667V115H101.833C102.292 115 102.667 114.625 102.667 114.167C102.667 113.708 102.292 113.333 101.833 113.333H100.167V111.667C100.167 111.208 99.7917 110.833 99.3333 110.833C98.875 110.833 98.5 111.208 98.5 111.667V113.333H96.8333C96.375 113.333 96 113.708 96 114.167C96 114.625 96.375 115 96.8333 115H98.5V116.667Z" fill="#00BCB4"/>
<path d="M106.833 124.167C108.214 124.167 109.333 123.047 109.333 121.667C109.333 120.286 108.214 119.167 106.833 119.167C105.453 119.167 104.333 120.286 104.333 121.667C104.333 123.047 105.453 124.167 106.833 124.167Z" fill="#00BCB4"/>
<path d="M113.5 115H110.858L109.825 113.875C109.67 113.705 109.481 113.568 109.27 113.475C109.059 113.382 108.831 113.334 108.6 113.333H103.267C103.408 113.583 103.5 113.858 103.5 114.167C103.5 115.083 102.75 115.833 101.833 115.833H101V116.667C101 117.583 100.25 118.333 99.3333 118.333C99.025 118.333 98.75 118.242 98.5 118.1V126.667C98.5 127.583 99.25 128.333 100.167 128.333H113.5C114.417 128.333 115.167 127.583 115.167 126.667V116.667C115.167 115.75 114.417 115 113.5 115ZM106.833 125.833C104.533 125.833 102.667 123.967 102.667 121.667C102.667 119.367 104.533 117.5 106.833 117.5C109.133 117.5 111 119.367 111 121.667C111 123.967 109.133 125.833 106.833 125.833Z" fill="#00BCB4"/>
<path d="M19.3418 169.139V171.434H9.5957V169.139H19.3418ZM15.709 165.223V175.574H13.2383V165.223H15.709ZM27.2566 177.2C26.8832 177.2 26.5432 177.16 26.2366 177.08C25.9299 177.013 25.6566 176.913 25.4166 176.78L25.6966 175.12C25.7899 175.147 25.8766 175.167 25.9566 175.18C26.0499 175.193 26.1366 175.2 26.2166 175.2C26.4432 175.2 26.6032 175.147 26.6966 175.04C26.8032 174.92 26.8566 174.74 26.8566 174.5V173.04C26.8566 172.387 26.9899 171.88 27.2566 171.52C27.5232 171.147 27.9299 170.893 28.4766 170.76L28.4966 170.68L26.3166 169.9V169.38C26.3166 168.727 26.5032 168.127 26.8766 167.58C27.2499 167.033 27.8099 166.6 28.5566 166.28C29.3032 165.947 30.2232 165.78 31.3166 165.78C32.3432 165.78 33.2299 165.94 33.9766 166.26C34.7232 166.567 35.2966 167.033 35.6966 167.66C36.1099 168.273 36.3166 169.053 36.3166 170V177H33.3166V170.18C33.3166 169.513 33.1366 169.013 32.7766 168.68C32.4299 168.347 31.9299 168.18 31.2766 168.18C30.6632 168.18 30.2032 168.313 29.8966 168.58C29.5899 168.833 29.4232 169.147 29.3966 169.52L31.1366 170.3L30.9166 171.6C30.5432 171.6 30.2566 171.727 30.0566 171.98C29.8699 172.22 29.7766 172.613 29.7766 173.16V174.84C29.7766 175.693 29.5366 176.3 29.0566 176.66C28.5899 177.02 27.9899 177.2 27.2566 177.2ZM42.0109 177V169.76C42.0109 169.2 41.8776 168.793 41.6109 168.54C41.3576 168.287 40.9376 168.16 40.3509 168.16C39.9109 168.16 39.5043 168.22 39.1309 168.34C38.7709 168.46 38.4309 168.607 38.1109 168.78V166.38C38.4043 166.247 38.8176 166.113 39.3509 165.98C39.8843 165.847 40.5109 165.78 41.2309 165.78C41.9643 165.78 42.6109 165.887 43.1709 166.1C43.7443 166.313 44.1909 166.673 44.5109 167.18C44.8443 167.673 45.0109 168.353 45.0109 169.22V177H42.0109ZM48.9223 177L47.0223 166.04H49.9423L50.4823 169.9C50.5223 170.22 50.569 170.66 50.6223 171.22C50.689 171.767 50.749 172.407 50.8023 173.14H50.8623C50.9823 172.647 51.089 172.2 51.1823 171.8C51.2757 171.387 51.3623 171.02 51.4423 170.7C51.5357 170.367 51.6157 170.08 51.6823 169.84L52.7623 166.04H54.5823L55.6623 169.84C55.729 170.08 55.8023 170.367 55.8823 170.7C55.9757 171.02 56.069 171.387 56.1623 171.8C56.269 172.2 56.3757 172.647 56.4823 173.14H56.5423C56.609 172.407 56.6623 171.767 56.7023 171.22C56.7557 170.66 56.809 170.22 56.8623 169.9L57.4223 166.04H60.3223L58.4423 177H55.5023L54.2423 172.54C54.109 172.02 54.0023 171.547 53.9223 171.12C53.8557 170.68 53.789 170.233 53.7223 169.78H53.6423C53.589 170.087 53.5357 170.38 53.4823 170.66C53.4423 170.94 53.389 171.233 53.3223 171.54C53.2557 171.833 53.169 172.167 53.0623 172.54L51.7823 177H48.9223ZM65.4136 177.2C64.8136 177.2 64.3069 177.107 63.8936 176.92C63.4803 176.733 63.1669 176.453 62.9536 176.08C62.7403 175.693 62.6336 175.213 62.6336 174.64V167.24C62.6336 166.893 62.6536 166.607 62.6936 166.38C62.7469 166.153 62.8403 165.94 62.9736 165.74C63.1069 165.527 63.3003 165.273 63.5536 164.98C63.8203 164.673 64.0403 164.407 64.2136 164.18C64.3869 163.953 64.4736 163.693 64.4736 163.4C64.4736 163.093 64.3603 162.853 64.1336 162.68C63.9203 162.493 63.5803 162.4 63.1136 162.4C62.7536 162.4 62.4336 162.447 62.1536 162.54C61.8736 162.633 61.6203 162.753 61.3936 162.9V160.68C61.5803 160.573 61.9136 160.453 62.3936 160.32C62.8869 160.173 63.4803 160.1 64.1736 160.1C65.2269 160.1 66.0603 160.32 66.6736 160.76C67.2869 161.2 67.5936 161.86 67.5936 162.74C67.5936 163.273 67.4869 163.74 67.2736 164.14C67.0736 164.54 66.8603 164.893 66.6336 165.2C66.4203 165.493 66.2336 165.74 66.0736 165.94C65.9269 166.127 65.8136 166.32 65.7336 166.52C65.6669 166.72 65.6336 166.987 65.6336 167.32V174.28C65.6336 174.533 65.6869 174.72 65.7936 174.84C65.9136 174.96 66.0869 175.02 66.3136 175.02C66.4203 175.02 66.5336 175.007 66.6536 174.98C66.7869 174.953 66.9069 174.92 67.0136 174.88L67.2936 176.8C67.0403 176.933 66.7536 177.033 66.4336 177.1C66.1136 177.167 65.7736 177.2 65.4136 177.2ZM73.8947 177.26C72.1614 177.26 70.9014 176.86 70.1147 176.06C69.3414 175.247 68.9547 174.073 68.9547 172.54V166.04H71.9547V172.7C71.9547 173.407 72.108 173.947 72.4147 174.32C72.7347 174.68 73.228 174.86 73.8947 174.86C74.5614 174.86 75.048 174.68 75.3547 174.32C75.6747 173.947 75.8347 173.407 75.8347 172.7V166.04H78.8347V172.54C78.8347 174.073 78.4414 175.247 77.6547 176.06C76.8814 176.86 75.628 177.26 73.8947 177.26ZM84.7105 177.2C84.1105 177.2 83.6038 177.107 83.1905 176.92C82.7771 176.733 82.4638 176.453 82.2505 176.08C82.0371 175.693 81.9305 175.213 81.9305 174.64V166.04H84.9305V174.28C84.9305 174.533 84.9838 174.72 85.0905 174.84C85.2105 174.96 85.3905 175.02 85.6305 175.02C85.7371 175.02 85.8505 175.007 85.9705 174.98C86.0905 174.953 86.2038 174.92 86.3105 174.88L86.5905 176.8C86.3371 176.933 86.0505 177.033 85.7305 177.1C85.4105 177.167 85.0705 177.2 84.7105 177.2ZM94.6088 177V169.88C94.6088 169.24 94.4354 168.78 94.0888 168.5C93.7421 168.22 93.2088 168.08 92.4888 168.08C91.7954 168.08 91.1154 168.187 90.4488 168.4C89.7954 168.6 89.2288 168.84 88.7488 169.12V166.64C89.1354 166.453 89.6821 166.267 90.3888 166.08C91.0954 165.88 91.9088 165.78 92.8288 165.78C93.5354 165.78 94.1688 165.867 94.7288 166.04C95.3021 166.213 95.7154 166.553 95.9688 167.06C96.5288 167.233 96.9288 167.573 97.1688 168.08C97.4221 168.573 97.5488 169.213 97.5488 170V177H94.6088ZM91.3288 177.2C90.1821 177.2 89.2954 176.927 88.6688 176.38C88.0554 175.833 87.7488 175.067 87.7488 174.08C87.7488 173.013 88.1288 172.16 88.8888 171.52C89.6621 170.88 90.8754 170.493 92.5288 170.36L95.0888 170.16V172.32L92.8688 172.54C92.0688 172.62 91.5088 172.78 91.1888 173.02C90.8821 173.26 90.7288 173.58 90.7288 173.98C90.7288 174.38 90.8554 174.68 91.1088 174.88C91.3754 175.08 91.7154 175.18 92.1288 175.18C92.2888 175.18 92.4488 175.167 92.6088 175.14C92.7688 175.1 92.9154 175.06 93.0488 175.02L93.3088 176.9C93.0554 176.993 92.7554 177.067 92.4088 177.12C92.0621 177.173 91.7021 177.2 91.3288 177.2ZM95.9088 168.22L94.2688 166.84C94.7354 166.68 95.1021 166.48 95.3688 166.24C95.6354 165.987 95.7754 165.68 95.7888 165.32H98.4088C98.4088 165.733 98.3221 166.133 98.1488 166.52C97.9888 166.893 97.7221 167.227 97.3488 167.52C96.9888 167.813 96.5088 168.047 95.9088 168.22ZM104.16 177.26C103.373 177.26 102.58 177.173 101.78 177C100.993 176.827 100.293 176.58 99.68 176.26L100.52 173.88C100.787 174.027 101.107 174.18 101.48 174.34C101.853 174.5 102.26 174.633 102.7 174.74C103.14 174.847 103.587 174.9 104.04 174.9C104.573 174.9 104.973 174.827 105.24 174.68C105.52 174.52 105.66 174.28 105.66 173.96C105.66 173.72 105.567 173.527 105.38 173.38C105.207 173.22 104.947 173.073 104.6 172.94C104.253 172.793 103.84 172.64 103.36 172.48C102.653 172.227 102.047 171.953 101.54 171.66C101.033 171.367 100.64 171.007 100.36 170.58C100.093 170.153 99.96 169.62 99.96 168.98C99.96 168.247 100.147 167.647 100.52 167.18C100.893 166.713 101.42 166.367 102.1 166.14C102.78 165.9 103.573 165.78 104.48 165.78C105.227 165.78 105.9 165.84 106.5 165.96C107.1 166.08 107.567 166.233 107.9 166.42V168.78C107.673 168.673 107.373 168.567 107 168.46C106.64 168.353 106.247 168.267 105.82 168.2C105.407 168.12 105.007 168.08 104.62 168.08C104.073 168.08 103.66 168.153 103.38 168.3C103.1 168.447 102.96 168.653 102.96 168.92C102.96 169.133 103.053 169.313 103.24 169.46C103.44 169.607 103.727 169.747 104.1 169.88C104.473 170 104.92 170.153 105.44 170.34C106.133 170.58 106.72 170.847 107.2 171.14C107.68 171.433 108.04 171.793 108.28 172.22C108.533 172.647 108.66 173.173 108.66 173.8C108.66 174.4 108.52 174.967 108.24 175.5C107.973 176.02 107.513 176.447 106.86 176.78C106.207 177.1 105.307 177.26 104.16 177.26ZM105.566 164.7C105.153 164.7 104.806 164.627 104.526 164.48C104.233 164.32 104.006 164.093 103.846 163.8L102.846 164.64C102.006 164.64 101.333 164.44 100.826 164.04C100.319 163.627 100.066 163.033 100.066 162.26C100.066 161.713 100.186 161.267 100.426 160.92C100.653 160.56 100.953 160.293 101.326 160.12C101.699 159.947 102.099 159.86 102.526 159.86H107.566V161.32H103.046C102.793 161.32 102.579 161.4 102.406 161.56C102.233 161.72 102.146 161.967 102.146 162.3C102.146 162.553 102.206 162.76 102.326 162.92C102.433 163.067 102.593 163.14 102.806 163.14L103.726 162.28H104.126C104.166 162.533 104.253 162.753 104.386 162.94C104.519 163.113 104.706 163.2 104.946 163.2C105.146 163.2 105.299 163.14 105.406 163.02C105.513 162.887 105.566 162.713 105.566 162.5V162.2H107.586V162.6C107.586 163.32 107.406 163.853 107.046 164.2C106.673 164.533 106.179 164.7 105.566 164.7ZM111.652 177V172.4H110.512V170.56H114.352V174.72H114.492C114.932 174.72 115.305 174.6 115.612 174.36C115.932 174.12 116.172 173.767 116.332 173.3C116.492 172.82 116.572 172.22 116.572 171.5C116.572 170.673 116.452 170.02 116.212 169.54C115.985 169.047 115.645 168.693 115.192 168.48C114.738 168.267 114.178 168.16 113.512 168.16C112.818 168.16 112.192 168.26 111.632 168.46C111.072 168.647 110.572 168.873 110.132 169.14V166.64C110.572 166.413 111.125 166.213 111.792 166.04C112.458 165.867 113.225 165.78 114.092 165.78C115.385 165.78 116.432 165.987 117.232 166.4C118.045 166.813 118.645 167.44 119.032 168.28C119.418 169.12 119.612 170.173 119.612 171.44C119.612 172.627 119.432 173.64 119.072 174.48C118.725 175.307 118.152 175.933 117.352 176.36C116.565 176.787 115.512 177 114.192 177H111.652Z" fill="#00BCB4"/>
</svg>
