<svg width="19" height="19" viewBox="0 0 19 19" fill="none" xmlns="http://www.w3.org/2000/svg">
<path fill-rule="evenodd" clip-rule="evenodd" d="M18.2692 12.4231C18.6728 12.4231 19 12.7503 19 13.1538V15.7115C19 16.5837 18.6535 17.4201 18.0368 18.0368C17.4201 18.6535 16.5837 19 15.7115 19H13.1538C12.7503 19 12.4231 18.6728 12.4231 18.2692C12.4231 17.8656 12.7503 17.5385 13.1538 17.5385H15.7115C16.1961 17.5385 16.6607 17.346 17.0033 17.0034C17.346 16.6608 17.5385 16.1961 17.5385 15.7115V13.1538C17.5385 12.7503 17.8656 12.4231 18.2692 12.4231Z" fill="white"/>
<path fill-rule="evenodd" clip-rule="evenodd" d="M12.4231 0.730769C12.4231 0.327176 12.7503 0 13.1538 0H15.7115C16.5837 0 17.4201 0.346461 18.0368 0.963167C18.6535 1.57987 19 2.41631 19 3.28846V5.84615C19 6.24975 18.6728 6.57692 18.2692 6.57692C17.8656 6.57692 17.5385 6.24975 17.5385 5.84615V3.28846C17.5385 2.80393 17.346 2.33925 17.0033 1.99663C16.6607 1.65402 16.1961 1.46154 15.7115 1.46154H13.1538C12.7503 1.46154 12.4231 1.13436 12.4231 0.730769Z" fill="white"/>
<path fill-rule="evenodd" clip-rule="evenodd" d="M0.730769 12.4231C1.13436 12.4231 1.46154 12.7503 1.46154 13.1538V15.7115C1.46154 16.1961 1.65404 16.6608 1.99665 17.0034C2.33927 17.346 2.80393 17.5385 3.28846 17.5385H5.84615C6.24975 17.5385 6.57692 17.8656 6.57692 18.2692C6.57692 18.6728 6.24975 19 5.84615 19H3.28846C2.41631 19 1.57989 18.6535 0.963179 18.0368C0.346472 17.4201 0 16.5837 0 15.7115V13.1538C0 12.7503 0.327176 12.4231 0.730769 12.4231Z" fill="white"/>
<path fill-rule="evenodd" clip-rule="evenodd" d="M3.28846 1.46154C2.80393 1.46154 2.33927 1.65402 1.99665 1.99663C1.65404 2.33925 1.46154 2.80393 1.46154 3.28846V5.84615C1.46154 6.24975 1.13436 6.57692 0.730769 6.57692C0.327176 6.57692 0 6.24975 0 5.84615V3.28846C0 2.41631 0.346473 1.57987 0.963179 0.963167C1.57988 0.346461 2.41631 0 3.28846 0H5.84615C6.24975 0 6.57692 0.327176 6.57692 0.730769C6.57692 1.13436 6.24975 1.46154 5.84615 1.46154H3.28846Z" fill="white"/>
</svg>
